# xmcd
#
# Track frame offsets: 
#        150
#        19731
#        39240
#        58207
#        76413
#        93345
#        111804
#        130513
#        150415
#        175399
#        197203
#        217300
#        235502
#
# Disc length: 3345 seconds
#
# Revision: 0
# Processed by: cddbd v1.5.2PL0 Copyright (c) Steve Scherf et al.
# Submitted via: ExactAudioCopy v0.95b3
#
DISCID=a60d0f0d
DTITLE=Procol Harum  - The Prodigal Stranger (1 Bonus Track) (Zoo Ente
DTITLE=rtainment)  FLAC
DYEAR=1900
DGENRE=
TTITLE0=Truth Won't Fade Away
TTITLE1=Holding On
TTITLE2=Man With a Mission
TTITLE3=(You Can't) Turn Back the Page
TTITLE4=One More Time
TTITLE5=Dream In Ev'ry Home
TTITLE6=Hand That Rocks the Cradle
TTITLE7=King of Hearts
TTITLE8=All Our Dreams Are Sold
TTITLE9=Perpetual Motion
TTITLE10=Learn To Fly
TTITLE11=Pursuit of Happiness
TTITLE12=Into The Flood
EXTD=
EXTT0=
EXTT1=
EXTT2=
EXTT3=
EXTT4=
EXTT5=
EXTT6=
EXTT7=
EXTT8=
EXTT9=
EXTT10=
EXTT11=
EXTT12=
PLAYORDER=
